<?xml version="1.0" standalone="no"?>
<!DOCTYPE svg PUBLIC "-//W3C//DTD SVG 20010904//EN"
 "http://www.w3.org/TR/2001/REC-SVG-20010904/DTD/svg10.dtd">
<svg version="1.0" xmlns="http://www.w3.org/2000/svg"
 width="1187.000000pt" height="1187.000000pt" viewBox="0 0 1187.000000 1187.000000"
 preserveAspectRatio="xMidYMid meet">
<metadata>
Created by potrace 1.11, written by Peter Selinger 2001-2013
</metadata>
<g transform="translate(0.000000,1187.000000) scale(0.100000,-0.100000)"
fill="#000000" stroke="none">
<path d="M4939 11047 c-133 -38 -259 -170 -326 -340 -28 -72 -31 -75 -128
-127 -66 -35 -117 -80 -141 -122 -8 -16 -20 -28 -26 -28 -11 0 -88 -34 -118
-51 -29 -17 -65 -32 -80 -33 -8 -1 -14 -9 -13 -20 1 -12 -2 -15 -9 -8 -11 11
-50 4 -43 -8 3 -5 -3 -7 -12 -5 -10 1 -24 -3 -32 -9 -12 -9 -13 -8 -6 4 5 8
-3 5 -18 -7 -15 -11 -43 -24 -62 -27 -19 -4 -35 -11 -35 -16 0 -6 -11 -10 -25
-10 -13 0 -28 -7 -33 -16 -5 -9 -13 -16 -18 -15 -20 1 -54 -12 -49 -19 2 -4
-7 -5 -21 -2 -14 2 -24 1 -22 -4 2 -5 0 -9 -4 -9 -4 0 -13 -9 -21 -19 -8 -10
-19 -16 -25 -13 -10 7 -94 -31 -100 -45 -2 -5 -10 -8 -18 -8 -9 0 -12 -4 -9
-10 4 -6 -1 -7 -11 -3 -10 4 -22 0 -30 -11 -6 -10 -16 -17 -21 -18 -19 0 -73
-28 -73 -37 0 -6 -3 -10 -7 -9 -12 4 -54 -28 -47 -35 3 -3 -3 -3 -14 -1 -10 3
-26 -2 -35 -10 -8 -9 -20 -16 -25 -16 -5 0 -21 -11 -36 -25 -15 -14 -32 -23
-37 -20 -5 4 -9 1 -9 -5 0 -6 -4 -8 -10 -5 -5 3 -10 -2 -10 -12 0 -15 -2 -16
-10 -3 -8 13 -10 12 -10 -4 0 -11 -3 -16 -6 -13 -10 9 -46 -12 -39 -24 4 -5
-6 -9 -20 -9 -21 0 -26 -4 -21 -16 6 -15 4 -15 -11 -3 -15 12 -16 12 -10 -4 4
-11 3 -16 -3 -12 -5 3 -20 -3 -32 -14 -12 -12 -28 -21 -35 -21 -7 0 -12 -3
-11 -8 2 -4 -20 -30 -48 -57 -27 -28 -72 -77 -100 -110 -27 -33 -66 -78 -86
-100 -38 -41 -50 -55 -123 -140 -24 -27 -55 -63 -70 -80 -99 -113 -176 -255
-229 -425 -68 -219 -71 -245 -71 -740 0 -245 -4 -454 -7 -465 -4 -11 -10 -40
-13 -65 -7 -53 -42 -230 -55 -280 -10 -42 -20 -95 -24 -130 -1 -14 -6 -32 -10
-41 -4 -9 -8 -27 -10 -41 -1 -13 -5 -29 -9 -34 -3 -6 -5 -21 -2 -33 2 -13 0
-19 -6 -15 -6 3 -9 0 -8 -7 1 -8 -1 -21 -4 -29 -8 -17 -27 -107 -29 -130 0 -8
-6 -21 -12 -29 -9 -12 -8 -13 4 -6 13 8 13 7 0 -9 -8 -10 -15 -28 -16 -40 -1
-11 -5 -32 -8 -46 -3 -14 -7 -38 -8 -55 -1 -16 -6 -32 -10 -35 -4 -3 -10 -28
-13 -55 -4 -27 -8 -52 -11 -54 -2 -2 1 -10 7 -18 9 -10 8 -13 -2 -13 -10 0
-10 -3 -1 -12 7 -7 12 -17 12 -23 0 -5 -5 -3 -10 5 -8 11 -10 6 -8 -20 1 -19
9 -41 16 -49 13 -13 12 -16 -4 -22 -16 -6 -15 -8 6 -7 116 2 841 -11 860 -15
24 -6 237 -33 310 -40 19 -2 45 -9 58 -16 12 -6 22 -9 22 -7 0 3 17 -1 39 -9
35 -12 40 -12 59 7 11 12 27 18 35 15 19 -7 29 -59 61 -332 66 -565 85 -808
93 -1180 7 -361 -8 -584 -53 -785 -3 -14 -6 -42 -7 -62 0 -21 -5 -38 -11 -38
-6 0 -4 -5 4 -10 13 -9 13 -10 0 -10 -13 0 -13 -2 -1 -9 11 -7 12 -13 3 -23
-12 -15 -14 -101 -2 -93 3 2 7 -2 7 -10 0 -11 -5 -12 -21 -3 -19 10 -20 10 -7
-5 7 -9 11 -23 8 -32 -4 -8 -1 -17 5 -21 7 -5 8 -2 3 7 -5 8 -4 11 0 6 5 -4
10 -18 11 -30 2 -12 0 -16 -2 -9 -10 22 -21 13 -16 -13 2 -15 0 -25 -7 -25 -7
0 -10 4 -6 9 3 5 1 12 -4 16 -5 3 -8 14 -6 25 2 12 0 18 -4 16 -4 -3 -7 -18
-6 -33 1 -15 -2 -33 -6 -38 -9 -12 -39 -206 -44 -287 -2 -32 -6 -61 -8 -65 -3
-4 -8 -42 -12 -83 -8 -87 -12 -122 -20 -170 -3 -19 -8 -71 -11 -115 -9 -116
-11 -137 -17 -165 -4 -14 -9 -68 -12 -120 -6 -95 -9 -119 -19 -195 -3 -22 -10
-87 -16 -145 -6 -58 -15 -143 -20 -190 -9 -88 -19 -197 -25 -291 -2 -30 -10
-115 -19 -189 -8 -74 -18 -166 -21 -205 -7 -85 -11 -108 -46 -263 -11 -51 -18
-99 -15 -107 3 -8 1 -17 -4 -20 -6 -4 -10 -11 -10 -16 0 -6 5 -7 10 -4 6 3 10
0 10 -7 0 -27 122 -71 261 -93 115 -18 328 -39 559 -55 146 -10 1012 -16 1028
-7 4 3 83 8 176 12 93 4 183 8 200 10 17 2 81 6 141 10 123 6 358 22 450 30
33 3 161 12 285 20 124 8 281 20 350 25 69 5 157 12 195 15 205 16 962 80
1045 90 25 2 72 7 105 10 323 28 376 36 406 66 19 19 20 25 10 42 -7 10 -8 16
-2 13 6 -4 9 5 8 23 -1 16 -5 27 -8 25 -3 -2 -9 45 -12 104 -5 106 -12 140
-102 522 -174 733 -228 983 -265 1210 -28 179 -28 168 -35 485 -4 160 -9 315
-11 345 -2 30 -7 686 -11 1458 -4 1053 -3 1402 6 1402 6 0 11 -5 11 -10 0 -6
11 -15 25 -20 14 -5 25 -16 25 -24 0 -9 15 -44 34 -78 19 -35 57 -128 86 -208
29 -80 74 -188 101 -240 51 -101 106 -171 118 -152 4 6 12 7 20 3 7 -5 44 4
89 22 307 119 719 173 1028 135 52 -6 97 -9 100 -6 3 3 8 37 11 75 9 112 -39
342 -81 386 -20 20 -83 221 -126 398 -38 159 -130 604 -185 904 -15 77 -35
185 -46 240 -11 55 -29 145 -39 200 -11 55 -22 107 -24 115 -2 8 -5 21 -5 28
-1 7 -4 11 -9 9 -4 -3 -7 9 -7 26 0 21 -4 31 -13 29 -8 -1 -11 2 -7 8 3 6 10
8 14 5 5 -2 6 7 3 20 -2 14 -8 22 -13 19 -5 -3 -9 8 -9 25 0 39 -10 62 -23 54
-6 -4 -7 -1 -2 8 13 20 13 49 2 56 -6 3 -7 1 -3 -5 4 -7 3 -12 -3 -12 -5 0 -9
12 -7 28 2 15 -5 54 -15 87 -11 33 -21 67 -23 76 -7 28 -58 143 -95 215 -32
61 -39 69 -49 55 -10 -14 -11 -14 -6 2 4 9 1 17 -5 17 -6 0 -11 9 -11 19 0 11
-4 21 -9 23 -5 2 -12 17 -14 33 -7 43 -18 75 -27 75 -4 0 -12 19 -19 43 -7 23
-27 70 -44 105 -26 53 -34 61 -51 56 -17 -6 -19 -4 -9 7 15 18 -9 54 -31 46
-9 -4 -13 -1 -10 7 3 7 -14 28 -36 47 -23 19 -52 43 -65 54 -14 11 -41 29 -62
40 -21 11 -46 28 -56 38 -11 11 -27 17 -39 14 -11 -3 -17 -3 -14 0 9 10 -24
35 -39 29 -9 -3 -15 0 -15 8 0 7 -8 20 -17 27 -16 13 -17 12 -4 -4 12 -15 12
-17 -3 -11 -9 3 -16 10 -16 16 0 5 -5 6 -12 2 -7 -4 -8 -3 -4 5 4 6 0 14 -11
18 -10 4 -24 15 -31 25 -7 10 -19 18 -26 18 -8 0 -17 7 -20 16 -3 8 -10 13
-14 10 -4 -2 -24 10 -43 27 -52 47 -114 93 -104 76 5 -8 -4 -2 -21 13 -62 58
-377 248 -410 248 -9 0 -13 4 -10 9 3 5 -1 12 -10 15 -8 3 -12 2 -9 -4 11 -19
-8 -10 -26 12 -11 11 -19 18 -19 14 0 -4 -7 0 -16 8 -8 9 -20 14 -25 11 -5 -4
-9 -2 -9 4 0 10 -38 27 -52 23 -5 -1 -8 2 -8 7 0 5 -16 15 -35 21 -19 6 -41
17 -48 23 -6 7 -28 20 -47 29 -19 10 -42 22 -50 27 -37 23 -110 52 -119 47 -5
-3 -7 2 -5 11 4 13 -4 22 -26 31 -27 12 -121 96 -110 98 7 1 -44 64 -51 64 -3
0 -32 25 -65 56 -110 104 -145 129 -155 113 -5 -8 -9 -9 -9 -3 0 14 -94 11
-150 -6 -53 -16 -70 -14 -86 8 -11 15 -31 17 -136 15 -72 -1 -189 6 -283 17
-528 63 -917 89 -996 67z m-1452 -7466 c0 -11 -5 -17 -9 -15 -13 8 -9 -11 5
-25 10 -10 8 -11 -8 -5 -18 7 -19 6 -6 -9 12 -16 12 -17 -5 -10 -16 6 -17 4
-6 -9 10 -13 10 -17 -3 -22 -11 -4 -14 -13 -10 -26 3 -11 2 -20 -3 -20 -4 0
-8 13 -8 29 0 17 3 28 8 25 4 -3 8 -1 8 5 0 5 -4 12 -9 15 -4 3 -8 20 -7 38 1
28 5 33 24 30 12 -2 22 2 22 7 0 6 2 11 4 11 3 0 4 -9 3 -19z m-26 -164 c-10
-9 -11 -8 -5 6 3 10 9 15 12 12 3 -3 0 -11 -7 -18z m9 -127 c0 -5 -5 -10 -11
-10 -5 0 -7 5 -4 10 3 6 8 10 11 10 2 0 4 -4 4 -10z"/>
<path d="M3443 3560 c-1 -11 2 -20 7 -20 4 0 7 7 6 15 -3 23 -12 26 -13 5z"/>
<path d="M8780 9225 c0 -8 4 -15 10 -15 5 0 7 7 4 15 -4 8 -8 15 -10 15 -2 0
-4 -7 -4 -15z"/>
</g>
</svg>
